<svg width="70" height="70" viewBox="0 0 70 70" fill="none" xmlns="http://www.w3.org/2000/svg">
<path d="M35 67C52.6731 67 67 52.6731 67 35C67 17.3269 52.6731 3 35 3C17.3269 3 3 17.3269 3 35C3 52.6731 17.3269 67 35 67Z" stroke="#7BA7D7" stroke-width="5"/>
<path d="M26.4444 19H22.5556C21.6964 19 21 19.7163 21 20.6V39.4C21 40.2837 21.6964 41 22.5556 41H26.4444C27.3036 41 28 40.2837 28 39.4V20.6C28 19.7163 27.3036 19 26.4444 19Z" fill="#7BA7D7"/>
<path d="M37.2222 23H32.7778C31.7959 23 31 23.7163 31 24.6V43.4C31 44.2837 31.7959 45 32.7778 45H37.2222C38.2041 45 39 44.2837 39 43.4V24.6C39 23.7163 38.2041 23 37.2222 23Z" fill="#7BA7D7"/>
<path d="M47.4444 27H43.5556C42.6964 27 42 27.7163 42 28.6V47.4C42 48.2837 42.6964 49 43.5556 49H47.4444C48.3036 49 49 48.2837 49 47.4V28.6C49 27.7163 48.3036 27 47.4444 27Z" fill="#7BA7D7"/>
</svg>
